<svg width="204" height="82" viewBox="0 0 204 82" fill="none" xmlns="http://www.w3.org/2000/svg">
<g opacity="0.93">
<path d="M203.518 3.58542C200.198 -3.02757 192.31 4.04389 190.745 9.3443C188.216 16.4107 184.563 22.8386 181.764 29.7869C181.455 30.4695 180.821 30.9144 180.164 30.7302C177.608 30.1078 175.175 31.0774 172.721 31.6488C172.127 31.788 171.55 31.9842 171.003 32.255C166.143 34.6662 162.069 38.3416 156.947 40.2018C154.847 41.1077 145.258 46.6857 144.572 43.3542C144.53 43.1538 144.587 42.9441 144.725 42.7921C148.157 39.0242 162.205 35.1578 157.4 29.0092C153.157 24.4186 146.303 29.8769 143.185 33.402C141.998 36.3914 139.285 38.7296 139.206 42.0696C139.021 43.4544 136.193 45.4487 135.213 43.9757C133.239 39.6831 133.374 26.5072 127.216 27.8045C126.029 28.2137 126.141 29.3539 126.468 30.5298C126.954 32.2839 126.781 34.1594 126.003 35.8064C123.794 40.4769 119.832 44.5861 117.034 48.9119C112.307 54.6198 111.053 53.325 111.343 46.9744C111.364 46.5363 111.343 46.0965 111.289 45.6618C110.968 43.1216 110.879 39.7102 111.129 36.8049C111.249 35.4337 110.855 34.0541 109.973 32.9953C105.832 28.032 104.088 46.4056 100.493 45.5973C100.291 45.5523 100.121 45.4105 100.013 45.2339C98.4459 42.6529 100.071 39.0378 99.1076 36.5841C98.8601 35.955 98.3038 35.494 97.648 35.3318C96.3466 35.0101 94.8657 34.9897 94.8521 36.7225C94.5944 38.5759 93.7829 40.3181 93.253 42.1384C91.7985 45.2237 87.5965 52.3733 87.406 44.7602C87.4536 41.432 87.0998 38.0877 87.5353 34.7579C87.9249 32.3391 83.6821 30.5986 82.5457 32.7805C81.3719 36.1223 78.3446 38.2686 75.7435 40.4803C75.5053 40.6823 75.211 40.8182 74.8972 40.8309C71.955 40.9455 74.6122 30.8584 75.2485 27.8291C75.3616 27.2908 75.1974 26.7177 74.7815 26.3569C73.1764 24.9654 71.4778 29.3794 69.2475 27.8783C65.9991 26.1472 63.8369 29.1595 61.9188 31.5096C61.4085 32.1361 60.7841 32.654 60.0892 33.0684C55.9868 35.5212 52.7077 39.1541 48.7133 41.8234C42.2854 46.5567 44.9784 25.0418 39.8008 25.6446C38.8396 25.7566 38.1473 26.6175 38.149 27.5803C38.1541 29.8285 39.0038 32.0699 37.3732 34.1288C36.765 34.8963 36.3295 35.7479 35.9017 36.63C35.2008 38.0767 34.5518 39.5472 33.8798 41.0075C33.1738 42.5425 32.4568 44.0759 31.6436 45.5582C31.0678 46.6068 30.4443 47.7886 29.5239 48.5833C28.8911 49.1292 28.1221 49.1114 27.7521 48.259C27.5208 47.7249 27.7003 47.0585 27.6467 46.4939C27.5752 45.7442 27.5038 44.9945 27.4323 44.2457C27.3302 43.1734 27.2282 42.0985 27.2426 41.0211C27.2494 40.5091 27.3217 40.0065 27.3558 39.4997C27.3923 38.9529 27.3319 38.3807 27.3209 37.8322C27.3098 37.3134 27.3668 36.8253 27.3753 36.3116C27.3906 35.3667 26.8845 34.4641 26.0246 34.066C24.5156 33.3672 23.3971 34.791 23.4141 36.2225C23.426 37.2252 23.2814 38.2236 23.2423 39.2399C23.2023 40.2799 23.1742 41.3981 23.3546 42.4262C23.5196 43.3669 23.6514 44.3424 23.5034 45.3061C23.3435 46.3461 23.2653 47.3964 23.3214 48.4466C23.3903 49.7422 23.4898 51.1329 24.1082 52.2969C24.8423 54.0679 27.2384 54.9976 29.2313 54.787C30.3567 54.6682 31.3587 54.0187 31.9541 53.0576C34.8546 48.3736 35.638 41.0296 39.6137 37.468C41.1056 39.5056 41.1141 42.3591 42.4181 44.5725C43.2415 46.2018 42.8706 46.6713 41.5981 47.7164C37.904 50.7975 29.6379 58.1339 39.2726 58.7953C42.9965 58.6857 46.8897 61.8169 50.3686 59.4465C52.7468 56.1081 45.4904 48.6903 49.2135 45.7679C51.0329 45.0208 52.6839 40.5473 54.7491 41.9839C54.5518 46.701 52.37 54.4067 59.8791 53.1145C63.1054 50.3662 65.4309 46.9803 66.8931 43.0273C67.3396 42.3676 67.6731 40.1721 68.6742 40.7511C72.5648 47.2758 65.089 52.195 62.5984 57.7705C60.1113 63.104 56.4784 68.3246 54.3281 73.5028C54.1061 74.0351 54.0508 74.6226 54.1912 75.1813C54.7024 77.2104 56.2487 79.2667 58.2783 79.7456C62.5729 79.7897 66.5358 82.2553 70.8611 81.3681C81.8576 83.4855 73.1569 54.579 74.4659 48.1936C75.4501 44.5199 79.1621 42.3294 81.6994 39.672C81.9001 39.4615 82.2293 39.4547 82.4351 39.6567C84.0385 41.2308 83.2976 48.2844 83.8182 50.5462C84.2911 52.6424 88.2864 53.8446 90.1662 52.7121C90.2649 52.6518 90.3678 52.6008 90.4741 52.5567C92.9298 51.5506 93.1177 47.106 95.513 46.9455C95.6712 46.9353 95.8277 47.0075 95.9281 47.1306C100.55 52.7868 102.948 51.4487 106.447 46.0541C109.05 50.7508 105.314 56.7619 110.347 57.8639C112.281 58.2875 114.287 57.6499 115.717 56.2864C118.561 53.5764 120.548 49.5563 122.959 46.4191C123.516 45.6966 124.01 44.9274 124.432 44.1192C127.505 38.2465 129.23 35.8964 130.707 44.7101C130.767 45.0556 130.863 45.3935 130.978 45.7238C132.569 50.3255 126.38 51.3316 124.802 54.9203C122.058 61.1734 129.251 64.1126 134.562 61.8288C140.848 58.9481 133.41 49.9629 139.226 46.9116C139.424 46.8071 139.611 46.6789 139.795 46.5507C142.122 44.9215 143.946 49.5919 146.76 48.5638C146.918 48.5077 147.082 48.4738 147.246 48.45C149.599 48.1078 155.877 43.6947 155.619 46.9999C155.555 47.8319 155.621 48.6682 155.877 49.462C160.29 63.1218 181.824 31.7167 175.094 49.1946C175.084 49.2226 175.072 49.2506 175.061 49.2786C175.055 49.2965 175.048 49.3143 175.041 49.3321C174.915 49.7116 174.789 50.0911 174.664 50.4698C174.628 50.5776 174.593 50.6855 174.558 50.7924C174.544 50.8323 174.531 50.8722 174.519 50.9121C174.419 51.2781 174.309 51.6347 174.163 51.9904C174.158 52.0031 174.153 52.015 174.148 52.0277C174.143 52.0405 174.137 52.0541 174.131 52.0677C173.326 54.0009 171.605 58.2273 171.163 61.2481C171.031 62.1463 171.013 62.9376 171.165 63.5302C171.319 64.1296 172.041 65.2614 172.566 65.6621C173.034 66.0204 173.536 66.3371 174.071 66.5739C174.357 66.7004 174.653 66.804 174.959 66.8787C175.156 66.9271 175.424 66.7972 175.584 66.669C175.748 66.5366 175.865 66.3235 175.923 66.1172C176.104 65.4702 175.845 64.7324 176.134 64.0931C176.501 63.2806 176.395 61.5011 176.484 60.579C176.532 60.0968 176.761 58.9065 177.031 57.6856C177.101 57.3715 177.186 57.0599 177.283 56.7525C177.462 56.1896 177.634 55.6242 177.802 55.0562C178.299 53.3777 178.756 51.6839 179.217 49.9944C179.217 49.9935 179.217 49.9927 179.217 49.9918C179.274 49.7889 179.329 49.5851 179.384 49.3822C180.851 44.0343 182.416 38.7491 185.468 34.1373C189.426 29.7317 194.539 25.9918 197.436 20.6914C200.102 16.3402 203.294 11.32 203.964 6.17577C204.078 5.2877 203.921 4.38604 203.519 3.58627L203.518 3.58542ZM149.807 34.3181C150.541 35.6978 147.821 36.5909 146.883 37.2065C143.984 38.4189 148.67 33.6032 149.807 34.3181ZM44.8159 58.0396V58.0413C42.1527 57.498 37.9133 56.6855 40.4413 53.4422C40.5842 53.2597 40.7535 53.0992 40.9253 52.9438C41.9843 51.9912 43.3376 49.1878 44.3923 50.3951C44.6356 50.6736 44.7479 51.0412 44.7402 51.4114C44.6892 53.646 48.2064 58.0218 44.8159 58.0396ZM60.1121 43.0367C59.9046 40.7265 66.9331 29.4142 68.8928 31.603C69.1557 33.5761 58.2885 53.0007 60.1121 43.0367ZM66.7995 75.8367C64.6339 74.8442 60.3979 75.2747 59.8187 72.4865C60.5119 67.8483 63.3487 64.1517 65.0575 59.7708C65.5236 58.7095 69.1642 51.1685 70.1849 53.3106C71.4548 59.7657 72.0358 66.6818 71.8827 73.22L71.881 73.2217C72.0375 77.5738 69.7945 77.297 66.7995 75.8367ZM130.205 59.0899C129.981 58.6441 129.962 58.1237 130.109 57.6457C130.796 55.4128 132.812 51.0268 132.868 55.9375C133.05 57.436 131.076 60.8134 130.205 59.0899ZM177.84 36.3583C174.821 39.5149 166.097 46.8343 162.047 46.9854C161.686 46.9973 161.424 46.656 161.538 46.313C162.719 42.7556 177.827 31.4578 178.224 35.3089C178.263 35.6969 178.11 36.0773 177.84 36.3583ZM199.155 9.04884C197.639 14.4248 194.45 19.3228 190.648 23.5263C190.191 23.9754 189.362 25.9935 188.642 24.9747C188.781 21.8945 192.236 19.7872 192.402 16.8555C192.416 16.6042 192.463 16.3563 192.54 16.1178C193.43 13.3907 198.44 3.97852 199.192 8.2618L199.194 8.2635C199.24 8.525 199.226 8.79499 199.155 9.04969V9.04884Z" fill="#0F1624"/>
<path d="M110.994 26.2888C111.122 28.0412 109.692 28.4708 108.492 27.98C107.629 27.6243 107.12 26.7413 107.124 25.8099C107.135 23.5388 105.6 19.9118 108.575 19.6223C111.653 20.2166 110.957 23.701 110.993 26.2905V26.2888H110.994Z" fill="#0F1624"/>
<path d="M29.0851 29.3311C26.0289 29.2895 26.7417 22.4719 29.5588 22.544C30.9504 22.5856 32.4585 24.0273 32.0741 25.4129C31.0908 26.8715 31.6717 30.0731 29.0851 29.3311Z" fill="#0F1624"/>
<path d="M27.143 2.57088C26.3384 1.27188 24.3344 0.011092 22.7855 5.48371e-05C20.1571 -0.0186235 19.3142 4.73926 18.7358 6.66823C16.907 12.7676 16.6535 19.2736 16.5217 25.5996C16.4987 26.6728 16.8117 28.3818 16.2886 29.2937C15.6583 30.3948 13.8134 30.7412 12.7051 31.0613C4.12937 33.5396 -3.59743 38.851 -8.97658 45.9624C-9.42655 46.5576 -9.87481 47.1977 -9.97518 47.9364C-10.2686 50.0793 -7.89208 52.3929 -6.4163 53.6163C-6.01907 53.9457 -5.53763 54.0527 -5.04259 54.1147C-3.18149 54.3498 -1.18174 53.2198 0.383354 52.3368C2.17981 51.3248 3.84272 50.098 5.49627 48.8737C8.63837 46.5491 12.3121 44.3442 14.6393 41.1323C14.7108 41.033 14.8945 40.9948 15.0901 41.0041C15.1752 41.882 14.7592 42.8024 14.8571 44.2839C14.92 45.2543 15.0374 46.0982 14.9915 46.988C14.8528 49.6913 14.544 56.6736 15.8846 59.0407C16.1925 59.5849 17.1426 60.4984 17.7074 60.7497C18.4814 61.0944 19.2938 61.3228 20.101 61.2973C20.283 61.2914 20.4718 61.0919 20.5688 60.9229C20.6692 60.7497 20.7049 60.5103 20.6921 60.293C20.6539 59.612 20.2133 58.9591 20.2685 58.257C20.3391 57.3638 19.7191 55.6505 19.5209 54.7251C19.3057 53.7207 18.8506 49.5223 18.8846 48.3982C18.4142 47.2291 18.6856 46.1415 18.7307 45.0225C18.7928 43.4587 19.3295 37.873 19.4732 36.7964C19.4962 36.6232 19.5251 36.4534 19.5643 36.2921C20.0244 34.3614 21.0273 32.2831 22.0335 30.5859C22.2938 30.1469 23.0313 27.9234 23.3536 27.3995C26.8207 21.768 28.4351 15.1609 28.4291 8.56833C28.4283 6.49758 28.2344 4.33343 27.143 2.57088ZM13.3183 36.4577C13.1797 36.6945 12.9883 36.9246 12.7731 37.097C12.2823 37.4875 11.7184 37.7889 11.2735 38.2313C10.8916 38.6108 10.6134 39.0786 10.2732 39.4954C9.82835 40.0414 9.28227 40.4939 8.74044 40.943C6.51869 42.7828 4.29439 45.1974 1.64564 46.4047C0.93539 46.7291 0.308501 47.123 -0.299673 47.5518C-1.00822 48.051 -1.84861 48.3286 -2.79447 48.4203C-3.0556 48.4441 -3.31503 48.3413 -3.4154 48.1121C-3.49706 47.9253 -3.55405 47.6443 -3.45283 47.5237C0.954103 42.1953 6.08234 38.2661 12.438 35.4872C13.6943 34.9379 13.7428 35.7335 13.3183 36.4577ZM24.6874 10.6272C24.6066 14.9028 23.3239 19.1632 21.1965 22.8649C21.0809 23.0644 20.5025 24.799 20.2771 24.6275C20.0653 24.4662 20.1843 23.6299 20.1877 23.404C20.2013 22.6162 20.2379 21.8291 20.2822 21.0421C20.3085 20.5895 20.3374 20.1379 20.3655 19.687C20.3732 19.5673 20.3808 19.4476 20.3885 19.3271C20.4012 19.1241 20.4302 18.9229 20.4599 18.7209C20.4897 18.5213 20.5093 18.3227 20.5297 18.1223C20.5492 17.9279 20.5714 17.7335 20.5943 17.539C20.6411 17.1536 20.6972 16.769 20.7627 16.3861C20.7823 16.2757 20.8019 16.1662 20.8214 16.0558C20.9575 15.3087 21.3318 14.6354 21.5079 13.8951C21.6839 13.1488 21.7009 12.3464 21.8685 11.5951C22.048 10.7911 23.3485 7.56394 24.428 9.26707C24.6797 9.66356 24.6967 10.1585 24.6874 10.6272Z" fill="#0F1624"/>
</g>
</svg>
